<?xml version="1.0" encoding="utf-8"?>
<!-- Generator: Adobe Illustrator 18.1.0, SVG Export Plug-In . SVG Version: 6.00 Build 0)  -->
<svg version="1.1" xmlns="http://www.w3.org/2000/svg" xmlns:xlink="http://www.w3.org/1999/xlink" x="0px" y="0px"
	 viewBox="0 0 446.4 144" enable-background="new 0 0 446.4 144" xml:space="preserve">
<g id="Design">
	<g id="Layer_1">
		<g display="none">
			<g display="inline">
				<path fill="#FFFFFF" d="M136.2-30.1h177v197 M257.8-15.6c-8.1,1.4-14.3,7.8-18.7,14.4c-5.2,7.6-6.6,17.5-4.1,26.2
					c1.5,4.7,5.6,7.8,9.6,10.3c-1.9,6.8-3.9,13.5-5.8,20.3c-13.5,0.4-27-0.5-40.3,1.9c-0.7-1.9-1.4-3.8-2.1-5.7
					c2.4-0.9,4.9-1.4,7-2.9c2-2.4,0.6-5.7,0-8.4c-3.1-9.3-6-18.6-9-28c-1.3-3.9-2-8.3-5.2-11.2c1,11.9,6.3,23,7,34.9
					c-3.8-2.9-3.8-8-5.4-12.1c-2.4-6.9-3.5-14.4-7.6-20.6c-0.6,7.1,2.3,13.7,3.8,20.4c1.1,4.7,3.1,9.4,2.3,14.4
					c-1.6-1.8-2.9-3.9-3.5-6.2c-2.2-7.4-4.5-14.8-6.7-22.3c-0.4-1.9-1.6-3.4-3-4.6c0.5,12,6,23.1,7,35c-3-2-3.4-5.8-4.5-8.9
					c-2.2-6.9-4.2-13.8-6.4-20.6c-0.4-1.6-1.6-2.6-2.9-3.5c1.5,10.6,4.9,20.7,7.2,31.1c1.4,4.9,1.8,10.3,4.4,14.7
					c2.5,2.4,6.2,0.8,9.2,0.7c0.5,2,1,4,1.6,6.1c-8.3,3.9-16,9.2-21.6,16.6c-2.1,3.2-4,6.6-5.4,10.1c10.5,4.9,20.5,11,28.6,19.2
					c2.6-2.1,5.2-4.3,7.9-6.3c2.3,7.9,3.5,16,6,23.8c4.2-0.5,8.3-1.6,12.3-2.8c-1.1-9-5.7-17-7.7-25.8c5.3-1.2,10.7-1.6,16.1-1.3
					c-1.2,7.2-4.6,13.8-4.8,21.2c3.8,1.2,7.7,2.9,11.8,2.8c1.4,0,1.7-1.8,2.1-2.8c1.5-6.3,2.3-12.7,3.6-19c5.7,1.1,10.7,4,15.5,7.2
					c0-12.8,3.3-25.3,8.2-37c-6.3,8.6-9.9,18.8-12,29.2c-8.1-3.9-17.1-6.1-26.1-5.8c-11.8-0.5-22.9,5-32,12.1
					c-7.7-6.1-15.7-12-24.8-15.9c1.6-2.4,3.2-4.7,5-7c4-3.5,7.8-7.4,12.4-10.1c5.5-3.4,12-4.7,18.3-5.8c9.5-1.7,19.1-0.1,28.6-1.2
					c8.3,0.5,16.6,0.7,24.9-0.1c4.4-0.1,8.8-2.3,11.4-5.8c2.6-4.8-0.3-10.1-3.4-13.8c0.8,3.6,3.8,8.7-0.1,11.5
					c-5.4,3.3-12.2,2.8-18.3,2.8c1-6.3,2.2-12.5,3.3-18.8c4.4-0.3,9-0.7,12.6-3.6c6.4-4.6,8.7-12.7,9.7-20.1
					c0.7-8.4-0.7-17.5-6.3-24.1c-0.5-1.3-1.6-2.3-2.7-3C262.7-14.7,260.4-16.2,257.8-15.6z"/>
			</g>
		</g>
		<g>
			<g>
				<path fill="#FFFFFF" d="M98.4,6.6c2.4-0.6,4.5,0.8,6.5,2c-3.7-0.5-7.8-1-11.1,0.9C87.6,12.8,83,18.5,80,24.7
					c-3.1,6.2-3.5,13.6-1.1,20c1.7,4,5.5,6.4,8.8,9.1c-0.6,2.5-1.1,5-1.7,7.5c1.2,0.2,2.3,0.4,3.5,0.7c0.7-2.5,1.4-5,2.1-7.5
					c4.5-0.6,9.6-0.9,13-4.3c5.9-5.5,7.7-14,7.4-21.8c0-6-2.7-11.5-4.6-17.1c5.3,6.1,6.5,14.7,5.9,22.6c-0.9,6.9-3.1,14.5-9,18.8
					c-3.3,2.7-7.7,3-11.8,3.3c-1,5.9-2.1,11.7-3.1,17.6c5.7,0,12,0.5,17.1-2.6c3.6-2.6,0.8-7.4,0-10.8c3,3.5,5.6,8.5,3.2,12.9
					c-2.4,3.3-6.5,5.4-10.6,5.4c-7.7-0.8-15.6-1.1-23.3,0.1c-8.9,1-17.9-0.5-26.8,1.1c-5.9,1-12,2.2-17.1,5.4
					c-4.3,2.6-7.8,6.2-11.6,9.4c-1.3-0.6-2.7-1.3-4-1.9c5.2-6.9,12.4-11.9,20.2-15.5c-0.5-1.9-1-3.8-1.5-5.7
					c-2.8,0.1-6.4,1.7-8.7-0.6c-2.4-4.2-2.8-9.2-4.1-13.8c-2.1-9.7-5.3-19.2-6.7-29.1c1.2,0.8,2.3,1.8,2.7,3.2
					c2.1,6.4,4,12.9,6,19.3c1,2.9,1.4,6.5,4.2,8.3c-1-11.1-6.1-21.6-6.6-32.8c1.3,1.2,2.4,2.6,2.8,4.3c2.1,6.9,4.2,13.9,6.3,20.8
					c0.6,2.2,1.8,4.1,3.3,5.8c0.8-4.6-1.2-9-2.2-13.4c-1.4-6.3-4.1-12.5-3.5-19.1c3.9,5.8,4.9,12.8,7.1,19.3c1.5,3.8,1.5,8.7,5,11.3
					c-0.6-11.1-5.6-21.5-6.5-32.6c3,2.7,3.7,6.8,4.9,10.5c2.7,8.7,5.5,17.5,8.4,26.2c0.6,2.5,1.9,5.6,0,7.8c-2,1.3-4.3,1.9-6.5,2.7
					c0.7,1.8,1.3,3.5,2,5.3c12.5-2.3,25.1-1.4,37.7-1.8c1.7-6.4,3.6-12.7,5.4-19c-3.8-2.3-7.6-5.2-9-9.6c-2.4-8.2-1-17.4,3.8-24.5
					C85,13.9,90.8,7.9,98.4,6.6z"/>
			</g>
			<g>
				<path fill="#FFFFFF" d="M93.7,9.4c3.4-2,7.4-1.4,11.1-0.9c1.1,0.7,2.1,1.6,2.5,2.8c1.9,5.6,4.6,11.1,4.6,17.1
					c0.3,7.8-1.5,16.3-7.4,21.8c-3.4,3.4-8.5,3.6-13,4.3c-0.7,2.5-1.4,5-2.1,7.5c-1.2-0.2-2.3-0.4-3.5-0.7c0.6-2.5,1.1-5,1.7-7.5
					c-3.2-2.6-7.1-5-8.8-9.1c-2.5-6.4-2-13.9,1.1-20C83,18.5,87.6,12.8,93.7,9.4z"/>
			</g>
			<g>
				<path fill="#FFFFFF" d="M75.9,78.7c7.7-1.2,15.6-0.9,23.3-0.1C91.5,79.4,83.6,79.2,75.9,78.7z"/>
				<path fill="#FFFFFF" d="M93.2,110.1c2-9.7,5.3-19.2,11.2-27.3c-4.6,11-7.6,22.6-7.6,34.6c-4.5-3-9.2-5.7-14.5-6.7
					c-1.2,5.9-2,11.9-3.4,17.8c-0.4,1-0.6,2.7-2,2.6c-3.8,0.1-7.4-1.5-11-2.6c0.1-6.9,3.4-13.1,4.5-19.8c-5.1-0.3-10.1,0.1-15.1,1.2
					c1.9,8.2,6.2,15.7,7.2,24.1c-3.8,1.1-7.6,2.2-11.5,2.6c-2.3-7.3-3.5-14.9-5.6-22.2c-2.5,1.9-5,3.9-7.4,5.9
					c-7.7-7.7-17-13.4-26.8-18c1.3-3.3,3.1-6.5,5.1-9.5c1.3,0.6,2.7,1.3,4,1.9c-1.7,2.1-3.2,4.3-4.7,6.5c8.5,3.6,15.9,9.2,23.2,14.8
					c8.5-6.7,18.9-11.7,30-11.3C77.3,104.4,85.7,106.5,93.2,110.1z"/>
			</g>
		</g>
		<g display="none">
		</g>
		<g>
			<path fill="#FFFFFF" d="M224.2,116.7c-3.7,3.9-7.9,7.3-12.5,10.3c-4.6,2.9-9.5,5.4-14.5,7.4c-5,2-10.2,3.5-15.3,4.5
				c-5.2,1-10.2,1.5-15.1,1.5c-5.4,0-10.4-0.6-15.2-1.9c-4.7-1.3-8.9-3.2-12.4-5.7s-6.4-5.8-8.4-9.8c-2.1-3.9-3.1-8.6-3.1-14
				c0-4.6,0.8-9,2.5-13.3c1.7-4.2,4.2-8,7.7-11.3s8-5.9,13.4-7.9c5.4-2,12-3.1,19.6-3.3c-5,0-9.4-0.7-13.1-2.2
				c-3.7-1.4-6.8-3.4-9.3-5.8c-2.5-2.4-4.3-5.3-5.5-8.5c-1.2-3.3-1.8-6.7-1.8-10.4c0-3.4,0.6-6.5,1.8-9.4c1.2-2.8,2.8-5.4,4.9-7.6
				c2.1-2.3,4.5-4.2,7.3-5.9c2.8-1.7,5.9-3.1,9.2-4.2c3.3-1.1,6.8-2,10.4-2.5c3.6-0.6,7.3-0.9,11-0.9c5.3,0,10.5,0.6,15.7,1.7
				c5.1,1.2,9.6,2.9,13.6,5.2s7.2,5.2,9.6,8.7c2.4,3.5,3.6,7.6,3.6,12.2c0,1.6-0.6,3.3-1.7,4.9c-1.1,1.6-2.5,3-4,4.3
				c-1.5,1.3-3.2,2.3-4.9,3s-3.1,1.1-4.3,1.1c-1,0-1.4-0.8-1.4-2.5c0-1.5,0.2-3.4,0.7-5.8c0.5-2.4,1.3-5.3,2.4-8.9c-1.2-1-3-2-5.4-3
				c-2.4-1-5-1.9-8-2.7c-3-0.8-6.2-1.5-9.5-2c-3.4-0.5-6.7-0.8-10-0.8c-3.1,0-6,0.3-8.8,0.8c-2.8,0.5-5.2,1.4-7.3,2.7
				c-2.1,1.3-3.8,2.9-5.1,5c-1.3,2.1-1.9,4.6-1.9,7.6c0,2.5,0.4,4.5,1.3,6.2c0.9,1.7,2.1,3.1,3.6,4.3c1.5,1.2,3.2,2.2,5.1,2.9
				s3.9,1.4,5.9,2c2.1,0.6,4.1,1.2,6,1.7s3.8,1.2,5.5,1.9c1.7,0.7,3.1,1.6,4.2,2.6c1.1,1,1.9,2.3,2.3,3.8c0.1,1,0.2,1.9,0.3,2.9
				c0.1,1,0.1,1.9,0.1,2.8c0,2.6-0.5,4.4-1.4,5.6s-2.8,1.7-5.6,1.7c-1.2,0-2.7-0.1-4.4-0.2c-1.8-0.1-3.4-0.2-5-0.2
				c-3.6,0-7.2,0.5-10.7,1.4c-3.5,0.9-6.7,2.3-9.4,4.2c-2.8,1.8-5,4.1-6.7,6.8c-1.7,2.7-2.6,5.9-2.6,9.5c0,3.4,0.5,6.3,1.5,8.5
				c1,2.3,2.3,4.1,4,5.5c1.7,1.4,3.7,2.4,6,3c2.3,0.6,4.8,0.9,7.5,0.9c3.2,0,6.6-0.3,10.2-1c3.6-0.6,7.1-1.5,10.6-2.6
				c3.5-1.1,7-2.4,10.3-4c3.3-1.5,6.5-3.2,9.3-4.9c2.9-1.8,5.4-3.6,7.6-5.5c2.2-1.9,3.9-3.9,5.1-5.8L224.2,116.7z"/>
			<path fill="#FFFFFF" d="M288.8,117c-1,1.5-2.5,3.2-4.2,5.1c-1.8,2-3.7,3.8-5.9,5.6s-4.5,3.3-7,4.5c-2.5,1.2-5,1.8-7.5,1.8
				c-3,0-5.5-1-7.5-2.9c-2-1.9-3.7-4.8-5.2-8.4c-1.1,1.3-2.4,2.6-4,3.9c-1.6,1.3-3.3,2.5-5.2,3.6c-1.9,1.1-3.9,1.9-5.9,2.6
				s-4.1,1-6.2,1c-2.2,0-4.3-0.4-6.4-1.3c-2.1-0.9-3.9-2.2-5.5-3.8c-1.6-1.7-2.9-3.7-3.8-6.1s-1.4-5.1-1.4-8.1
				c0-3.4,0.5-6.9,1.4-10.5c1-3.6,2.3-7.1,4-10.6c1.7-3.4,3.7-6.7,6-9.7c2.3-3.1,4.8-5.7,7.6-8c2.7-2.3,5.6-4.1,8.6-5.4
				c3-1.3,6.1-2,9.3-2c1,0,1.9,0.2,2.5,0.6c0.6,0.4,1.1,0.9,1.5,1.4c0.4,0.5,0.8,1,1.1,1.5c0.4,0.5,0.8,0.9,1.4,1.1
				c0.5,0.2,1.1,0.4,1.7,0.4c0.6,0.1,1.2,0.1,1.7,0.1c0.5,0,1,0,1.5,0c0.5,0,1,0,1.5,0c0.7,0,1.3,0.1,1.9,0.2
				c0.6,0.1,1.1,0.4,1.6,0.9c0.5,0.5,0.8,1.1,1.1,1.9c0.2,0.8,0.4,1.9,0.4,3.3c0,2.2-0.2,4.6-0.7,7.3c-0.5,2.7-1,5.4-1.5,8.2
				s-1,5.6-1.5,8.4c-0.5,2.8-0.7,5.5-0.7,8c0,2.1,0.2,3.8,0.6,5c0.4,1.2,1.2,1.8,2.5,1.8c1,0,2-0.2,3-0.7c1-0.5,2.1-1.1,3.2-1.9
				c1.1-0.8,2.1-1.7,3.2-2.6c1.1-1,2.1-2,3-3c2.2-2.5,4.5-5.2,6.8-8.3L288.8,117z M230.4,111.6c0,1.1,0.1,2.2,0.2,3.3
				c0.2,1.1,0.4,2,0.9,2.9c0.4,0.8,1,1.5,1.6,2.1c0.7,0.5,1.5,0.8,2.6,0.8c1.7,0,3.2-0.7,4.6-2.2c1.4-1.5,2.6-3.2,3.6-5.3
				c1-2.1,1.8-4.2,2.4-6.4s1-4,1.2-5.5l4.2-20.1c-1.9,0-3.7,0.5-5.5,1.4c-1.8,0.9-3.5,2.2-5,3.8c-1.6,1.6-3,3.4-4.3,5.5
				c-1.3,2.1-2.5,4.2-3.4,6.5s-1.7,4.5-2.2,6.8C230.7,107.5,230.4,109.6,230.4,111.6z"/>
			<path fill="#FFFFFF" d="M337.6,118.5c-4.4,2.6-8.3,4.8-11.7,6.7s-6.5,3.5-9.1,4.8c-2.7,1.3-5,2.2-7.1,2.9c-2.1,0.6-4,1-5.6,1
				c-3.5,0-6.5-1-9.2-3.1c-2.6-2.1-4.9-5.1-6.6-9.1c-1.8-3.9-3.1-8.7-4-14.3s-1.3-11.9-1.3-18.9c0-2.7,0.1-5.7,0.3-8.8
				c0.2-3.1,0.5-6.2,1-9.2c-1.4-0.2-2.4-0.4-3.2-0.5c-0.8-0.2-1.5-0.3-2.4-0.5c-0.8-0.2-1.9-0.3-3.2-0.5c-1.3-0.2-3.2-0.4-5.6-0.7
				c-1.1-0.1-1.9-0.4-2.5-0.8c-0.6-0.4-1-0.8-1.3-1.4c-0.3-0.5-0.4-1.1-0.5-1.6c0-0.6-0.1-1.1-0.1-1.5c0-0.9,0.4-1.6,1.3-2.1
				s2-0.8,3.4-1.1c1.4-0.2,2.9-0.4,4.6-0.4c1.7,0,3.3,0,4.8,0c1.5,0,2.9,0.1,4.1,0.1c1.2,0,2,0,2.5-0.1c1.2-6.2,2.8-12.1,4.7-17.9
				c1.9-5.8,4-10.9,6.4-15.4c2.3-4.5,4.9-8.1,7.7-10.8c2.8-2.7,5.7-4.1,8.8-4.1c2,0,3.7,0.5,5.4,1.6c1.6,1.1,3,2.6,4.1,4.4
				c1.1,1.8,2,4,2.6,6.4c0.6,2.4,0.9,5,0.9,7.6c0,2.2-0.3,4.6-1,7.1c-0.6,2.5-1.5,5-2.6,7.6c-1.1,2.6-2.4,5.2-3.9,7.8
				c-1.5,2.6-3,5.3-4.7,7.9c0.4,0,1.1,0.1,2.1,0.1c1,0,2.1,0.1,3.3,0.1c1.3,0,2.6,0.1,4.1,0.2c1.5,0.1,2.9,0.1,4.2,0.2
				c1.4,0,2.6,0.1,3.8,0.1c1.2,0,2.2,0.1,2.9,0.1c0.9,0,1.6,0.5,2,1.4c0.4,0.9,0.6,2,0.6,3.3c0,1.6-0.5,2.9-1.4,3.9
				c-0.9,1-1.9,1.5-3,1.5H307c-1.3,1.8-2.7,3.6-4,5.4c-1.3,1.8-2.6,3.3-3.7,4.8c-0.2,2.8-0.3,5.6-0.5,8.3c0,1.2-0.1,2.4-0.1,3.7
				c0,1.3-0.1,2.5-0.1,3.7c0,1.2-0.1,2.4-0.1,3.6c0,1.1,0,2.2,0,3.1c0,2.5,0.2,4.5,0.7,6.2c0.5,1.7,1.1,3.1,2,4.1
				c0.9,1.1,1.9,1.8,3.2,2.3c1.3,0.5,2.7,0.7,4.2,0.7c1,0,2.2-0.2,3.6-0.7c1.4-0.5,3-1.1,4.7-1.9c1.7-0.8,3.5-1.7,5.4-2.8
				c1.9-1.1,3.8-2.3,5.6-3.6s3.6-2.7,5.3-4.1c1.7-1.4,3.2-2.9,4.6-4.4V118.5z M315.7,31.9c0-0.5,0-1.1-0.1-1.7s-0.2-1.2-0.4-1.7
				c-0.2-0.5-0.6-1-1.1-1.4c-0.5-0.4-1.2-0.5-2-0.5c-1.2,0-2.4,1-3.6,3.1c-1.2,2.1-2.4,4.8-3.5,8c-1.1,3.3-2.2,6.8-3.1,10.8
				c-1,3.9-1.9,7.7-2.7,11.4c0.7,0.1,1.4,0.2,2.1,0.2s1.4,0.1,2.1,0.2c1.4-2.3,2.8-4.8,4.3-7.6c1.5-2.7,2.8-5.4,4-8
				c1.2-2.6,2.2-5.1,2.9-7.3C315.4,35.2,315.7,33.4,315.7,31.9z"/>
			<path fill="#FFFFFF" d="M350.7,133.8c-2.5,0-4.8-1.1-6.9-3.2c-2.1-2.2-4-5.1-5.5-8.7c-1.6-3.6-2.8-7.9-3.7-12.7
				c-0.9-4.8-1.3-9.9-1.3-15.1c0-4.1,0.3-8.5,0.9-13.2c0.6-4.8,1.5-9.7,2.6-14.7c1.1-5.1,2.5-10.1,4.1-15.2c1.6-5.1,3.3-10,5.3-14.7
				c2-4.7,4.1-9.1,6.5-13.2c2.3-4.1,4.8-7.6,7.3-10.7c2.6-3,5.2-5.4,8-7.1c2.8-1.7,5.6-2.6,8.5-2.6c2,0,3.6,0.4,4.9,1.3
				c1.3,0.9,2.3,2.1,3,3.5c0.7,1.5,1.2,3.1,1.5,5c0.3,1.8,0.4,3.7,0.4,5.6c0,4.3-0.5,8.6-1.5,13.1c-1,4.4-2.3,8.9-4,13.4
				c-1.7,4.5-3.6,9-5.8,13.5s-4.5,9-6.8,13.4c-2.4,4.4-4.8,8.8-7.1,13.1s-4.6,8.5-6.7,12.6c-0.2,0.5-0.5,1-0.7,1.8
				c-0.3,0.7-0.5,1.5-0.7,2.4c-0.2,0.8-0.5,1.7-0.7,2.7c-0.2,1-0.4,1.9-0.5,2.8v1c0,1.2,0.1,2.3,0.4,3.5c0.2,1.1,0.6,2.1,0.9,3
				c0.4,0.9,0.8,1.6,1.2,2.1c0.4,0.5,0.8,0.8,1.2,0.8c0.9,0,1.9-0.2,3-0.5c1.1-0.4,2.3-0.9,3.6-1.5c1.3-0.6,2.5-1.3,3.9-2.1
				c1.3-0.8,2.6-1.6,3.8-2.4c2.9-1.9,5.9-4.1,9-6.6l5.6,14.4c-4.1,2.9-8.1,5.5-12,7.8c-1.7,1-3.5,1.9-5.4,2.8
				c-1.8,0.9-3.7,1.8-5.6,2.5c-1.9,0.7-3.7,1.3-5.5,1.7C354,133.6,352.3,133.8,350.7,133.8z M350.8,79.1c2.1-3.6,4.2-7.7,6.5-12.3
				c2.3-4.6,4.5-9.3,6.5-14.1c2.1-4.8,3.8-9.6,5.3-14.5c1.5-4.8,2.5-9.3,2.9-13.4c0-1.3,0-2.4-0.1-3.4c-0.1-0.9-0.3-1.4-0.6-1.4
				c-1.3,0-2.7,0.9-4.3,2.6c-1.5,1.7-3.1,4-4.6,6.9c-1.5,2.9-3,6.3-4.4,10.2c-1.4,3.9-2.6,8-3.7,12.4s-2,8.9-2.6,13.5
				C351.1,70.2,350.8,74.7,350.8,79.1z"/>
			<path fill="#FFFFFF" d="M416.8,82.6c1.3,2.6,2.3,5.4,3,8.4c0.7,2.9,1,5.8,1,8.4c0,2.7-0.3,5.4-0.9,8.1c-0.6,2.7-1.4,5.4-2.6,7.9
				c-1.1,2.6-2.5,4.9-4.1,7.2c-1.6,2.2-3.5,4.2-5.5,5.8c-2.1,1.6-4.3,2.9-6.8,3.9s-5.1,1.4-7.9,1.4c-4,0-7.4-0.9-10.3-2.6
				c-2.8-1.8-5.2-4-7-6.9c-1.8-2.8-3.2-6-4-9.6c-0.8-3.6-1.3-7.2-1.3-10.8c0-5,0.8-9.7,2.3-14c1.5-4.4,3.7-8.1,6.5-11.3
				s6.2-5.7,10.3-7.6c4.1-1.8,8.6-2.8,13.7-2.8c4.3,0,8.4,0.7,12.2,2c3.8,1.3,7.3,3.1,10.6,5.4c3.3,2.3,6.4,4.8,9.2,7.8
				c2.8,2.9,5.5,5.9,8,9l-1.3,9.6c-1.2-1.6-2.9-3.4-5-5.3c-2.1-1.9-4.3-3.8-6.7-5.6c-2.3-1.8-4.7-3.5-6.9-5.2
				c-2.3-1.6-4.2-3-5.9-4.1L416.8,82.6z M395.7,120.6c1.5,0,3.1-0.8,4.5-2.4c1.5-1.6,2.7-3.6,3.8-5.9s2-5,2.6-7.9
				c0.7-2.9,1-5.7,1-8.3c0-2.1-0.2-4-0.5-5.8c-0.3-1.8-0.8-3.4-1.4-4.7c-0.6-1.3-1.5-2.4-2.5-3.1c-1-0.8-2.2-1.2-3.6-1.2
				c-1.9,0-3.6,0.8-5.3,2.4c-1.7,1.6-3.2,3.6-4.4,6.1c-1.3,2.5-2.3,5.2-3,8.2c-0.7,3-1.1,5.9-1.1,8.7c0,1.9,0.2,3.7,0.5,5.4
				c0.4,1.7,0.9,3.2,1.7,4.4c0.8,1.3,1.8,2.3,3.1,3C392.3,120.3,393.9,120.6,395.7,120.6z"/>
		</g>
	</g>
</g>
<g id="Name">
</g>
</svg>
